<svg aria-hidden="true" style="position: absolute; width: 0; height: 0; overflow: hidden;" version="1.1" xmlns="http://www.w3.org/2000/svg" xmlns:xlink="http://www.w3.org/1999/xlink">
<defs>

<symbol id="logo" viewBox="0 0 104 26" fill="none">
<path d="M28.7786 22.6036C28.9167 23.5978 28.5404 24.5473 27.859 25.1424C27.7324 25.2542 27.5954 25.3523 27.4492 25.4366C27.3169 25.5119 27.1788 25.5768 27.0326 25.6281C26.7012 25.7455 26.3559 25.7888 26.0163 25.7672C26.0071 25.7672 25.9979 25.7672 25.9887 25.7649C25.3051 25.7159 24.6467 25.4058 24.1806 24.9099C23.4244 24.1062 23.4463 23.1075 23.4554 22.8989C23.4554 22.7985 23.4601 22.7006 23.4716 22.6036H15.2538C15.2654 22.7006 15.2699 22.7985 15.2699 22.8989C15.2792 23.1075 15.3011 24.1062 14.5449 24.9099C14.0787 25.4058 13.4204 25.7159 12.7368 25.7649C12.7275 25.7672 12.7183 25.7672 12.709 25.7672C12.3696 25.7888 12.0243 25.7455 11.6929 25.6281C11.5466 25.5768 11.4085 25.5119 11.2762 25.4366C11.13 25.3523 10.993 25.2542 10.8664 25.1436C10.8653 25.1436 10.8653 25.1424 10.8653 25.1424C10.1851 24.5462 9.80871 23.5978 9.94683 22.6036H6.9866C7.00616 22.5306 7.02688 22.4566 7.04645 22.3836C7.41475 21.0281 7.78305 19.6715 8.15136 18.3159L8.39305 18.3045L11.2209 18.1792C11.3487 18.1735 11.4465 18.0674 11.4408 17.942C11.435 17.8154 11.3303 17.7174 11.2002 17.7243L8.5185 17.8428L8.27796 17.8542C8.41147 17.3595 8.54613 16.8658 8.67964 16.3722L8.91328 16.3916L11.1841 16.5796H11.2037C11.3222 16.5796 11.4235 16.4896 11.4327 16.371C11.4431 16.2457 11.3498 16.135 11.2232 16.1247L9.03528 15.9435L8.80164 15.9241C8.93744 15.4237 9.07327 14.9232 9.20907 14.4238L9.42544 14.507L11.58 15.3313C11.6065 15.3416 11.6353 15.3473 11.6629 15.3473C11.7549 15.3473 11.8424 15.2914 11.877 15.2014C11.923 15.0839 11.8643 14.9517 11.7457 14.9061L9.5463 14.0635L9.32992 13.9815C10.5235 9.58778 11.7181 5.19409 12.9117 0.801514C13.7738 3.42816 14.6346 6.05481 15.4955 8.68032C16.1033 8.37479 17.5201 7.74891 19.3546 7.77741H19.3708C21.2053 7.74891 22.6222 8.37479 23.2299 8.68032C24.0908 6.05481 24.9517 3.42816 25.8138 0.801514C27.0073 5.19409 28.202 9.58778 29.3955 13.9815L29.1792 14.0635L26.9797 14.9061C26.8611 14.9517 26.8012 15.0839 26.8473 15.2014C26.883 15.2914 26.9704 15.3473 27.0626 15.3473C27.0902 15.3473 27.1178 15.3416 27.1454 15.3313L29.2999 14.507L29.5164 14.4238C29.6521 14.9232 29.788 15.4237 29.9237 15.9241L29.6901 15.9435L27.5022 16.1247C27.3756 16.135 27.2812 16.2457 27.2915 16.371C27.3019 16.4896 27.4032 16.5796 27.5206 16.5796H27.5402L29.8122 16.3916L30.0458 16.3722C30.1793 16.8658 30.3139 17.3595 30.4474 17.8542L30.2069 17.8428L27.5241 17.7243C27.3941 17.7196 27.2893 17.8154 27.2836 17.942C27.2777 18.0674 27.3768 18.1735 27.5034 18.1792L30.3324 18.3045L30.5741 18.3159C30.9424 19.6715 31.3107 21.0281 31.679 22.3836C31.6986 22.4566 31.7192 22.5306 31.7388 22.6036H28.7786Z" fill="#F4E041"/>
<path d="M32.0381 22.8316L31.9783 22.6127L31.9161 22.3835L30.8135 18.3261L30.5741 18.3159L30.3324 18.3045L31.4384 22.3755H28.5139L28.5496 22.6344C28.6589 23.4175 28.4241 24.1768 27.9534 24.724C27.8636 24.8289 27.7646 24.9258 27.6587 25.0124C27.6266 25.0398 27.5931 25.066 27.5598 25.09C27.4907 25.1424 27.4194 25.1892 27.3445 25.2313C27.2214 25.3032 27.0914 25.3647 26.9543 25.4126C26.7265 25.4935 26.4893 25.5368 26.2512 25.5437C26.1728 25.546 26.0946 25.5437 26.0164 25.5391C25.9404 25.5346 25.8644 25.5254 25.7885 25.5129C25.2498 25.4274 24.7353 25.1652 24.3487 24.7537C23.7064 24.0707 23.6707 23.2363 23.6857 22.8988C23.6857 22.7997 23.6903 22.7118 23.6995 22.6297L23.7294 22.3755H14.9949L15.0248 22.6297C15.034 22.7118 15.0398 22.7997 15.0398 22.9079C15.0536 23.2363 15.0179 24.0707 14.3756 24.7537C13.989 25.1652 13.4745 25.4274 12.937 25.5129C12.8611 25.5254 12.7851 25.5346 12.7091 25.5391C12.6309 25.5437 12.5526 25.546 12.4743 25.5437C12.235 25.5368 11.9978 25.4935 11.7699 25.4126C11.6341 25.3647 11.5041 25.3043 11.3821 25.2325H11.3809C11.3061 25.1902 11.2336 25.1424 11.1646 25.09C11.1312 25.066 11.0978 25.0398 11.0656 25.0124C10.9597 24.9258 10.8607 24.8289 10.7709 24.724C10.3002 24.1768 10.0654 23.4175 10.1747 22.6344L10.2104 22.3755H7.28702L8.39307 18.3045L8.15138 18.3159L7.91082 18.3261L6.80822 22.3835L6.74607 22.6127L6.68622 22.8316H9.69249C9.61653 24.1711 10.3946 25.4115 11.6146 25.8424C12.6769 26.2186 13.9222 25.9063 14.713 25.0649C15.4737 24.2554 15.5162 23.2728 15.5002 22.8988C15.5002 22.876 15.499 22.8532 15.499 22.8316H23.2254V22.8886C23.2081 23.2728 23.2506 24.2554 24.0115 25.0649C24.5799 25.6691 25.381 25.9997 26.1809 25.9997C26.4952 25.9997 26.8094 25.9484 27.1097 25.8424C28.3297 25.4115 29.1078 24.1711 29.0319 22.8316H32.0381ZM8.67966 16.372L8.44602 16.3527L8.03629 17.8644L8.27798 17.8541L8.51853 17.8428L8.9133 16.3914L8.67966 16.372ZM25.8346 0L25.5939 0.730765C24.8758 2.92191 24.1564 5.11308 23.4383 7.30309L23.0918 8.3599C22.2159 7.95177 20.9176 7.52197 19.3708 7.54933H19.3582C17.8067 7.52426 16.5084 7.95177 15.6326 8.3599L15.2861 7.30309C14.5679 5.11308 13.8497 2.92191 13.1304 0.730765L12.8899 0L9.11357 13.8982L9.32995 13.9815L9.54632 14.0635L12.9324 1.60176C13.5712 3.55007 14.2099 5.49727 14.8475 7.44445L15.3598 9.00402L15.5991 8.88317C16.4232 8.4682 17.748 7.97571 19.3547 8.00535H19.3742C20.9855 7.97799 22.3011 8.4682 23.1252 8.88317L23.3657 9.00402L23.8768 7.44445C24.5144 5.49727 25.1531 3.55007 25.793 1.60176L29.1791 14.0635L29.3955 13.9815L29.6108 13.8982L25.8346 0ZM8.99271 14.3406L8.56802 15.9046L8.80166 15.924L9.0353 15.9434L9.42548 14.507L9.20909 14.4238L8.99271 14.3406ZM29.7316 14.3416L29.5164 14.4238L29.3 14.507L29.6902 15.9434L29.9238 15.924L30.1564 15.9058L29.7316 14.3416ZM30.2783 16.3527L30.0459 16.372L29.8121 16.3914L30.207 17.8428L30.4475 17.8541L30.688 17.8644L30.2783 16.3527Z" fill="black" fill-opacity="0.87"/>
<path d="M21.1868 14.9493C20.9163 14.9493 20.6977 14.7326 20.6977 14.4647V11.528C20.6977 11.2601 20.9163 11.0435 21.1868 11.0435C21.4572 11.0435 21.6759 11.2601 21.6759 11.528V14.4647C21.6759 14.7315 21.4572 14.9493 21.1868 14.9493Z" fill="black" fill-opacity="0.87"/>
<path d="M17.8256 14.4365C17.5573 14.4649 17.3157 14.2722 17.2869 14.0055L17.0486 11.7893C17.0198 11.5236 17.2144 11.2842 17.4837 11.2557C17.7519 11.2272 17.9936 11.4199 18.0224 11.6867L18.2605 13.9029C18.2894 14.1696 18.0948 14.4079 17.8256 14.4365Z" fill="black" fill-opacity="0.87"/>
<path d="M11.875 15.2013C11.8405 15.2914 11.753 15.3472 11.6609 15.3472C11.6333 15.3472 11.6045 15.3416 11.5781 15.3313L9.4235 14.507L9.20712 14.4238L8.99073 14.3406L5.86016 13.1424C5.74047 13.0968 5.68177 12.9646 5.7278 12.8471C5.77385 12.7297 5.90735 12.6716 6.0259 12.7172L9.11159 13.8982L9.32797 13.9814L9.54434 14.0635L11.7438 14.9061C11.8624 14.9517 11.921 15.0839 11.875 15.2013Z" fill="black" fill-opacity="0.87"/>
<path d="M11.4305 16.3708C11.4213 16.4894 11.3201 16.5795 11.2015 16.5795H11.1819L8.91112 16.3914L8.67748 16.372L8.44384 16.3526L5.07273 16.0733C4.94612 16.063 4.85174 15.9525 4.86326 15.827C4.8736 15.7017 4.98295 15.6081 5.11185 15.6196L8.56584 15.9046L8.79948 15.9239L9.03312 15.9433L11.2211 16.1246C11.3477 16.1348 11.4409 16.2455 11.4305 16.3708Z" fill="black" fill-opacity="0.87"/>
<path d="M11.4389 17.9422C11.4447 18.0677 11.3468 18.1736 11.2191 18.1793L8.3912 18.3047L8.14951 18.3162L7.90896 18.3264L5.09489 18.4519H5.08453C4.96253 18.4519 4.8601 18.356 4.8555 18.2341C4.84974 18.1075 4.94757 18.0015 5.07417 17.9958L8.0344 17.8647L8.2761 17.8545L8.51665 17.8431L11.1984 17.7245C11.3284 17.7176 11.4331 17.8157 11.4389 17.9422Z" fill="black" fill-opacity="0.87"/>
<path d="M32.8614 13.1424L29.7297 14.3417L29.5144 14.4238L29.2981 14.507L27.1435 15.3313C27.1159 15.3416 27.0882 15.3472 27.0606 15.3472C26.9686 15.3472 26.881 15.2914 26.8454 15.2013C26.7994 15.0839 26.8592 14.9517 26.9777 14.9061L29.1772 14.0635L29.3936 13.9814L29.6088 13.8982L32.6956 12.7172C32.813 12.6716 32.9477 12.7297 32.9938 12.8471C33.0387 12.9646 32.98 13.0968 32.8614 13.1424Z" fill="black" fill-opacity="0.87"/>
<path d="M33.8567 15.8273C33.867 15.9527 33.7727 16.0633 33.646 16.0735L30.2749 16.3529L30.0424 16.3723L29.8088 16.3916L27.5368 16.5797H27.5173C27.3999 16.5797 27.2986 16.4897 27.2882 16.3711C27.2778 16.2457 27.3723 16.1351 27.4988 16.1248L29.6868 15.9436L29.9204 15.9242L30.1529 15.906L33.608 15.6198C33.7347 15.6072 33.8463 15.7018 33.8567 15.8273Z" fill="black" fill-opacity="0.87"/>
<path d="M33.865 18.2338C33.8591 18.3558 33.7579 18.4516 33.6348 18.4516H33.6243L30.8103 18.3262L30.571 18.3159L30.3293 18.3045L27.5003 18.1792C27.3736 18.1734 27.2746 18.0674 27.2803 17.942C27.2862 17.8154 27.3908 17.7196 27.521 17.7243L30.2038 17.8428L30.4443 17.8542L30.6848 17.8645L33.6452 17.9955C33.7728 18.0012 33.8707 18.1073 33.865 18.2338Z" fill="black" fill-opacity="0.87"/>
<path d="M25.9208 23.5796C26.0087 23.8304 26.0849 24.136 26.1092 24.486C26.1381 24.8976 26.0861 25.2555 26.0144 25.5393L25.9208 23.5796Z" fill="white"/>
<path d="M26.0154 25.7672C25.997 25.7672 25.9785 25.7649 25.9602 25.7604C25.8371 25.7306 25.7611 25.6064 25.7922 25.4845C25.8727 25.1595 25.9027 24.8289 25.8796 24.5017C25.86 24.2178 25.8002 23.9328 25.7035 23.6546C25.662 23.5361 25.7254 23.4061 25.8462 23.3651C25.9671 23.324 26.0971 23.3867 26.1385 23.5065C26.249 23.8222 26.3158 24.1471 26.3388 24.4709C26.3653 24.846 26.3307 25.2233 26.2387 25.595C26.2122 25.6976 26.1178 25.7672 26.0154 25.7672Z" fill="black" fill-opacity="0.87"/>
<path d="M27.4217 23.4893C27.5627 23.7139 27.6853 23.9874 27.7234 24.3009C27.7697 24.6692 27.6865 24.9896 27.572 25.2449L27.4217 23.4893Z" fill="white"/>
<path d="M27.5715 25.4718C27.5404 25.4718 27.5093 25.465 27.4782 25.4524C27.362 25.4011 27.309 25.2666 27.3608 25.1515C27.4829 24.8779 27.5266 24.6008 27.4932 24.3272C27.4632 24.0878 27.3736 23.8461 27.2251 23.6078C27.1583 23.5007 27.1916 23.3604 27.2999 23.2943C27.4081 23.2282 27.5497 23.2613 27.6164 23.3684C27.8006 23.6625 27.9121 23.967 27.9501 24.2725C27.9939 24.6282 27.9375 24.9862 27.7821 25.3361C27.7441 25.4217 27.6601 25.4718 27.5715 25.4718Z" fill="black" fill-opacity="0.87"/>
<path d="M12.803 23.5796C12.7152 23.8304 12.6388 24.136 12.6145 24.486C12.5857 24.8976 12.6377 25.2555 12.7093 25.5393L12.803 23.5796Z" fill="white"/>
<path d="M12.707 25.7673C12.6035 25.7673 12.5102 25.6976 12.4838 25.594C12.3916 25.2235 12.3571 24.845 12.3836 24.4698C12.4054 24.145 12.4734 23.8211 12.5839 23.5054C12.6254 23.3868 12.7566 23.3229 12.8762 23.364C12.9959 23.405 13.0603 23.535 13.0189 23.6536C12.9222 23.9317 12.8624 24.2156 12.8429 24.5006C12.8198 24.8278 12.8498 25.1585 12.9303 25.4834C12.9602 25.6054 12.8854 25.7296 12.7623 25.7593C12.7438 25.765 12.7255 25.7673 12.707 25.7673Z" fill="black" fill-opacity="0.87"/>
<path d="M11.3021 23.4893C11.1611 23.7139 11.0386 23.9874 11.0004 24.3009C10.9542 24.6692 11.0374 24.9896 11.1518 25.2449L11.3021 23.4893Z" fill="white"/>
<path d="M11.1509 25.4718C11.0622 25.4718 10.9782 25.4205 10.9402 25.3361C10.7849 24.9872 10.7273 24.6293 10.7722 24.2725C10.8102 23.967 10.9218 23.6637 11.106 23.3684C11.1727 23.2613 11.3143 23.2282 11.4225 23.2943C11.5307 23.3604 11.5641 23.5007 11.4973 23.6078C11.3488 23.845 11.2591 24.0878 11.2291 24.3272C11.1958 24.6008 11.2395 24.8779 11.3615 25.1515C11.4133 25.2666 11.3604 25.4011 11.2441 25.4524C11.213 25.4661 11.1819 25.4718 11.1509 25.4718Z" fill="black" fill-opacity="0.87"/>
<path d="M8.35528 22.7985H0.244843C0.11018 22.7985 0 22.7111 0 22.6045C0 22.4977 0.11018 22.4104 0.244843 22.4104H8.35528C8.48994 22.4104 8.60012 22.4977 8.60012 22.6045C8.60012 22.7111 8.48994 22.7985 8.35528 22.7985Z" fill="black" fill-opacity="0.87"/>
<path d="M37.8844 22.8395H30.2593C30.1327 22.8395 30.0291 22.737 30.0291 22.6115C30.0291 22.4862 30.1327 22.3835 30.2593 22.3835H37.8844C38.011 22.3835 38.1145 22.4862 38.1145 22.6115C38.1145 22.737 38.0121 22.8395 37.8844 22.8395Z" fill="black" fill-opacity="0.87"/>
<path d="M21.7043 18.6444C21.5385 19.0707 21.1553 19.5324 20.6685 19.6021C20.2184 19.6647 19.8041 19.4264 19.506 19.0559C19.4773 19.1345 19.4416 19.2155 19.3955 19.2964C19.3207 19.4288 18.9191 20.083 18.2492 20.083H18.2307C17.5931 20.0717 17.0396 19.496 16.9429 18.7424C16.9279 18.617 17.0166 18.503 17.1431 18.4881C17.2675 18.4722 17.3849 18.5611 17.3998 18.6854C17.4735 19.2668 17.8844 19.6213 18.2388 19.6271H18.248C18.6705 19.6271 18.9616 19.1312 18.9939 19.0742C19.1527 18.7914 19.1492 18.5018 19.1204 18.3115C19.1101 18.2762 19.1009 18.2408 19.0916 18.2055C18.6486 18.2568 18.2665 18.1029 18.1962 17.8223C18.1168 17.5032 18.4725 17.1407 18.9915 17.013C19.5118 16.8853 19.9975 17.0403 20.0769 17.3596C20.1436 17.6229 19.9146 17.9147 19.5417 18.0812C19.5531 18.1233 19.5635 18.1736 19.5728 18.2282C19.7592 18.8416 20.2358 19.2007 20.604 19.1505C20.8895 19.1094 21.1576 18.7822 21.2738 18.4813C21.3729 18.2259 21.3591 17.9854 21.3303 17.8292C21.3084 17.705 21.3912 17.5864 21.5155 17.5636C21.6421 17.5419 21.7607 17.624 21.7837 17.7471C21.8229 17.9615 21.8413 18.2898 21.7043 18.6444Z" fill="black" fill-opacity="0.87"/>
<path d="M43.8069 18.588C43.4134 18.588 43.2167 18.4796 43.2167 18.2628V9.33509H40.3838C40.2854 9.33509 40.2117 9.3006 40.1625 9.23162C40.1133 9.16264 40.0887 9.04932 40.0887 8.89166V8.65516C40.0887 8.4975 40.1133 8.38418 40.1625 8.3152C40.2117 8.24622 40.2854 8.21173 40.3838 8.21173H47.3037C47.4119 8.21173 47.4857 8.24622 47.525 8.3152C47.5742 8.38418 47.5988 8.4975 47.5988 8.65516V8.89166C47.5988 9.04932 47.5742 9.16264 47.525 9.23162C47.4857 9.3006 47.4119 9.33509 47.3037 9.33509H44.5151V18.2628C44.5151 18.4796 44.3184 18.588 43.9249 18.588H43.8069ZM49.7799 18.5584C49.6226 18.5584 49.5094 18.5239 49.4406 18.455C49.3717 18.386 49.3373 18.2727 49.3373 18.115V8.65516C49.3373 8.4975 49.3717 8.38418 49.4406 8.3152C49.5094 8.24622 49.6226 8.21173 49.7799 8.21173H54.9293C55.0375 8.21173 55.1112 8.24622 55.1506 8.3152C55.1998 8.38418 55.2244 8.4975 55.2244 8.65516V8.89166C55.2244 9.04932 55.1998 9.16264 55.1506 9.23162C55.1112 9.3006 55.0375 9.33509 54.9293 9.33509H50.6357V12.7052H54.4866C54.5948 12.7052 54.6686 12.7396 54.708 12.8086C54.7571 12.8776 54.7817 12.9909 54.7817 13.1486V13.3851C54.7817 13.5427 54.7571 13.6561 54.708 13.725C54.6686 13.794 54.5948 13.8285 54.4866 13.8285H50.6357V17.4351H54.9441C55.0522 17.4351 55.126 17.4696 55.1654 17.5385C55.2145 17.6075 55.2392 17.7208 55.2392 17.8785V18.115C55.2392 18.2727 55.2145 18.386 55.1654 18.455C55.126 18.5239 55.0522 18.5584 54.9441 18.5584H49.7799ZM59.546 18.6471C58.9558 18.6471 58.4099 18.5781 57.9083 18.4402C57.4066 18.3022 57.0279 18.1347 56.7722 17.9376C56.5852 17.7997 56.4918 17.6765 56.4918 17.5681C56.4918 17.4499 56.5557 17.2873 56.6836 17.0803C56.8213 16.8734 56.9294 16.7699 57.0082 16.7699C57.0475 16.7699 57.1508 16.8192 57.3181 16.9177C57.6229 17.0852 57.9475 17.2281 58.2919 17.3464C58.646 17.4646 59.064 17.5238 59.546 17.5238C60.1164 17.5238 60.5788 17.3661 60.933 17.0508C61.2968 16.7256 61.4789 16.3019 61.4789 15.7796C61.4789 15.415 61.3805 15.1145 61.1838 14.878C60.987 14.6316 60.746 14.4395 60.4608 14.3015C60.1853 14.1537 59.7821 13.9763 59.2509 13.7694C58.6804 13.5427 58.2278 13.3358 57.8935 13.1486C57.559 12.9614 57.2738 12.6855 57.0377 12.3208C56.8017 11.9464 56.6836 11.4586 56.6836 10.8575C56.6836 10.3254 56.8164 9.85242 57.082 9.43856C57.3573 9.02469 57.7409 8.70443 58.2329 8.47779C58.7345 8.2413 59.31 8.12305 59.9592 8.12305C60.2935 8.12305 60.6674 8.17232 61.0805 8.27086C61.4936 8.35954 61.8132 8.48272 62.0395 8.64038C62.2362 8.75863 62.3346 8.88673 62.3346 9.02469C62.3346 9.13308 62.2706 9.29075 62.1428 9.49768C62.0248 9.70461 61.9312 9.80808 61.8625 9.80808C61.8132 9.80808 61.7394 9.78344 61.6412 9.73418C61.5526 9.68491 61.4936 9.65041 61.4641 9.63071C60.9722 9.3745 60.4608 9.2464 59.9296 9.2464C59.3591 9.2464 58.8968 9.39421 58.5427 9.68983C58.1983 9.98545 58.0263 10.3944 58.0263 10.9167C58.0263 11.2517 58.1098 11.5227 58.2771 11.7296C58.4542 11.9365 58.6509 12.0942 58.8673 12.2026C59.0935 12.3011 59.482 12.4588 60.0329 12.6756C60.6231 12.9022 61.105 13.1239 61.4789 13.3407C61.8526 13.5477 62.1673 13.8531 62.4232 14.2572C62.6887 14.6513 62.8215 15.1588 62.8215 15.7796C62.8215 16.6665 62.5264 17.3661 61.9363 17.8785C61.3461 18.3909 60.5493 18.6471 59.546 18.6471ZM67.3364 18.588C66.9429 18.588 66.7463 18.4796 66.7463 18.2628V9.33509H63.9134C63.815 9.33509 63.7412 9.3006 63.6921 9.23162C63.6428 9.16264 63.6183 9.04932 63.6183 8.89166V8.65516C63.6183 8.4975 63.6428 8.38418 63.6921 8.3152C63.7412 8.24622 63.815 8.21173 63.9134 8.21173H70.8333C70.9414 8.21173 71.0152 8.24622 71.0546 8.3152C71.1037 8.38418 71.1284 8.4975 71.1284 8.65516V8.89166C71.1284 9.04932 71.1037 9.16264 71.0546 9.23162C71.0152 9.3006 70.9414 9.33509 70.8333 9.33509H68.0447V18.2628C68.0447 18.4796 67.8478 18.588 67.4545 18.588H67.3364ZM75.4341 18.588C75.0407 18.588 74.8439 18.4796 74.8439 18.2628V9.33509H72.011C71.9127 9.33509 71.839 9.3006 71.7897 9.23162C71.7405 9.16264 71.7159 9.04932 71.7159 8.89166V8.65516C71.7159 8.4975 71.7405 8.38418 71.7897 8.3152C71.839 8.24622 71.9127 8.21173 72.011 8.21173H78.9309C79.0392 8.21173 79.113 8.24622 79.1522 8.3152C79.2015 8.38418 79.226 8.4975 79.226 8.65516V8.89166C79.226 9.04932 79.2015 9.16264 79.1522 9.23162C79.113 9.3006 79.0392 9.33509 78.9309 9.33509H76.1423V18.2628C76.1423 18.4796 75.9456 18.588 75.5521 18.588H75.4341ZM79.7393 18.588C79.3164 18.588 79.1048 18.5042 79.1048 18.3367C79.1048 18.2874 79.1196 18.2185 79.1491 18.1298L82.6459 8.41867C82.705 8.261 82.9018 8.18217 83.2361 8.18217H83.664C84.0181 8.18217 84.2149 8.261 84.2542 8.41867L87.751 18.1446C87.7805 18.2135 87.7953 18.2776 87.7953 18.3367C87.7953 18.5042 87.5839 18.588 87.1608 18.588H87.0428C86.6986 18.588 86.5019 18.5092 86.4526 18.3515L85.5821 15.9274H81.2443L80.4032 18.3515C80.3541 18.5092 80.1574 18.588 79.8131 18.588H79.7393ZM85.1837 14.8041L83.6345 10.3993C83.5854 10.2417 83.5263 9.95589 83.4574 9.54202H83.4279C83.3493 9.93619 83.2755 10.2219 83.2066 10.3993L81.6574 14.8041H85.1837ZM91.5767 18.6471C90.9866 18.6471 90.4406 18.5781 89.939 18.4402C89.4373 18.3022 89.0586 18.1347 88.8029 17.9376C88.6159 17.7997 88.5225 17.6765 88.5225 17.5681C88.5225 17.4499 88.5864 17.2873 88.7144 17.0803C88.852 16.8734 88.9602 16.7699 89.039 16.7699C89.0782 16.7699 89.1815 16.8192 89.3488 16.9177C89.6536 17.0852 89.9782 17.2281 90.3226 17.3464C90.6767 17.4646 91.0947 17.5238 91.5767 17.5238C92.1472 17.5238 92.6096 17.3661 92.9637 17.0508C93.3275 16.7256 93.5096 16.3019 93.5096 15.7796C93.5096 15.415 93.4112 15.1145 93.2145 14.878C93.0177 14.6316 92.7767 14.4395 92.4915 14.3015C92.2161 14.1537 91.8128 13.9763 91.2817 13.7694C90.7111 13.5427 90.2586 13.3358 89.9241 13.1486C89.5897 12.9614 89.3045 12.6855 89.0685 12.3208C88.8324 11.9464 88.7144 11.4586 88.7144 10.8575C88.7144 10.3254 88.8471 9.85242 89.1127 9.43856C89.3881 9.02469 89.7717 8.70443 90.2636 8.47779C90.7652 8.2413 91.3407 8.12305 91.9899 8.12305C92.3242 8.12305 92.6981 8.17232 93.1112 8.27086C93.5243 8.35954 93.8439 8.48272 94.0703 8.64038C94.2669 8.75863 94.3654 8.88673 94.3654 9.02469C94.3654 9.13308 94.3013 9.29075 94.1735 9.49768C94.0555 9.70461 93.962 9.80808 93.8932 9.80808C93.8439 9.80808 93.7702 9.78344 93.6719 9.73418C93.5834 9.68491 93.5244 9.65041 93.4948 9.63071C93.0029 9.3745 92.4915 9.2464 91.9604 9.2464C91.3898 9.2464 90.9275 9.39421 90.5734 9.68983C90.2291 9.98545 90.057 10.3944 90.057 10.9167C90.057 11.2517 90.1405 11.5227 90.3078 11.7296C90.4849 11.9365 90.6816 12.0942 90.898 12.2026C91.1242 12.3011 91.5127 12.4588 92.0636 12.6756C92.6538 12.9022 93.1357 13.1239 93.5096 13.3407C93.8833 13.5477 94.198 13.8531 94.4539 14.2572C94.7195 14.6513 94.8523 15.1588 94.8523 15.7796C94.8523 16.6665 94.5572 17.3661 93.967 17.8785C93.3768 18.3909 92.5801 18.6471 91.5767 18.6471ZM97.3753 18.588C96.9818 18.588 96.7851 18.4796 96.7851 18.2628V8.50735C96.7851 8.29056 96.9818 8.18217 97.3753 8.18217H97.4933C97.8867 8.18217 98.0835 8.29056 98.0835 8.50735V13.0303H98.1425L101.772 8.38911C101.88 8.25115 102.146 8.18217 102.569 8.18217H102.716C102.884 8.18217 103.012 8.20188 103.1 8.2413C103.189 8.27086 103.233 8.3152 103.233 8.37432C103.233 8.46301 103.184 8.56155 103.085 8.66994L99.3967 13.2816L103.867 18.1446C103.956 18.2431 104 18.3219 104 18.3811C104 18.4599 103.951 18.5141 103.853 18.5436C103.754 18.5732 103.587 18.588 103.351 18.588H103.174C102.957 18.588 102.785 18.5781 102.657 18.5584C102.539 18.5387 102.441 18.4845 102.362 18.3958L98.1425 13.6364H98.0835V18.2628C98.0835 18.4796 97.8867 18.588 97.4933 18.588H97.3753Z" fill="black" fill-opacity="0.87"/>
</symbol>





<symbol id="formOk" viewBox="0 0 328 290" fill="none">
<path d="M321.927 267.839H296.084V268.033H321.927V267.839Z" fill="#EBEBEB"/>
<path d="M229.324 269.945H222.543V270.139H229.324V269.945Z" fill="#EBEBEB"/>
<path d="M295.304 260.621H280.33V260.815H295.304V260.621Z" fill="#EBEBEB"/>
<path d="M45.5132 261.926H11.813V262.12H45.5132V261.926Z" fill="#EBEBEB"/>
<path d="M57.405 261.926H52.4658V262.12H57.405V261.926Z" fill="#EBEBEB"/>
<path d="M146.559 265.205H73.4629V265.399H146.559V265.205Z" fill="#EBEBEB"/>
<path d="M156.106 25.2336C144.761 37.7827 139.143 54.8775 140.103 71.7391C141.062 88.6008 147.305 104.748 154.904 119.845C161.56 133.07 169.511 148.067 164.065 161.828C161.022 169.521 154.085 175.217 146.415 178.387C138.745 181.557 130.334 182.474 122.039 182.886C107.901 183.593 93.5513 182.948 79.795 186.251C66.0387 189.553 52.4931 197.712 47.1716 210.774C40.906 226.167 48.0221 244.583 60.569 255.515C73.1237 266.448 89.962 271.142 106.48 273.465C129.624 276.713 153.336 275.897 176.198 271.072C194.558 267.194 212.622 260.597 227.603 249.338C242.576 238.079 254.265 221.792 257.472 203.376C260.671 184.961 254.46 164.595 239.806 152.924C233.712 148.067 226.362 144.749 221.017 139.085C215.672 133.42 212.957 123.987 217.92 117.988C221.197 114.025 226.721 112.813 231.84 112.199C257.019 109.208 284.914 114.375 305.974 100.303C318.029 92.245 325.832 78.5071 327.549 64.1475C329.265 49.7879 326.152 34.2472 317.069 22.9647C292.311 -7.75147 186.428 -8.30316 156.106 25.2336Z" fill="#E5F7FF"/>
<path d="M165.949 290C249.503 290 317.237 286.062 317.237 281.204C317.237 276.346 249.503 272.408 165.949 272.408C82.3951 272.408 14.6611 276.346 14.6611 281.204C14.6611 286.062 82.3951 290 165.949 290Z" fill="#E5F7FF"/>
<path d="M153.521 157.896L155.471 146.683L159.302 147.795L153.521 157.896Z" fill="#00BDD3"/>
<path d="M154.808 161.478L165.779 158.323L164.257 154.648L154.808 161.478Z" fill="#00BDD3"/>
<path d="M156.759 157.267L163.009 145.495L167.214 148.408L156.759 157.267Z" fill="#00BDD3"/>
<path d="M53.5041 174.921H48.5649C48.3465 174.921 48.1748 174.75 48.1748 174.532C48.1748 174.314 48.3465 174.144 48.5649 174.144H53.5041C53.7226 174.144 53.8942 174.314 53.8942 174.532C53.8942 174.75 53.7226 174.921 53.5041 174.921Z" fill="#00BDD3"/>
<path d="M45.2802 174.921H20.522C20.3035 174.921 20.1318 174.75 20.1318 174.532C20.1318 174.314 20.3035 174.144 20.522 174.144H45.2724C45.4908 174.144 45.6625 174.314 45.6625 174.532C45.6625 174.75 45.4908 174.921 45.2802 174.921Z" fill="#00BDD3"/>
<path d="M133.061 219.881C132.967 219.881 132.873 219.85 132.795 219.78C132.639 219.632 132.624 219.391 132.772 219.228L135.081 216.726C135.23 216.571 135.472 216.563 135.635 216.703C135.791 216.85 135.807 217.091 135.659 217.254L133.349 219.757C133.271 219.842 133.17 219.881 133.061 219.881Z" fill="#00BDD3"/>
<path d="M111.907 239.796C111.767 239.796 111.626 239.718 111.556 239.586C111.463 239.392 111.533 239.159 111.728 239.065C118.961 235.421 130.416 221.792 130.533 221.652C130.673 221.489 130.915 221.466 131.079 221.605C131.243 221.745 131.266 221.986 131.126 222.149C130.65 222.717 119.445 236.035 112.071 239.757C112.032 239.78 111.97 239.796 111.907 239.796Z" fill="#00BDD3"/>
<path d="M168.055 235.538L173.626 230.946L159.597 217.689L153.612 222.779L168.055 235.538Z" fill="#F6B69E"/>
<path d="M178.136 229.182C177.762 228.949 176.997 229.058 176.209 229.275C175.834 229.384 175.444 229.508 175.101 229.633C174.828 229.734 174.578 229.835 174.367 229.92C174.055 230.052 173.829 230.153 173.751 230.192C173.681 230.208 173.634 230.277 173.626 230.355C173.618 230.378 173.634 230.41 173.65 230.433C173.673 230.472 173.712 230.503 173.759 230.511C174.547 230.72 175.358 230.852 176.178 230.915C176.576 230.969 176.989 230.938 177.371 230.829C177.395 230.821 177.41 230.821 177.426 230.814C177.645 230.744 177.863 230.65 178.058 230.534C178.316 230.324 178.456 230.006 178.425 229.671C178.417 229.477 178.316 229.283 178.136 229.182ZM178.058 229.687C178.097 229.912 177.996 230.138 177.808 230.27C177.66 230.394 177.449 230.472 177.176 230.526C176.911 230.581 176.591 230.596 176.224 230.573C175.795 230.557 175.296 230.487 174.742 230.386C174.625 230.363 174.5 230.34 174.375 230.316C175.038 229.998 175.733 229.757 176.451 229.594C176.833 229.508 177.215 229.446 177.606 229.407C177.723 229.407 177.832 229.43 177.933 229.485C178.019 229.531 178.066 229.609 178.058 229.687Z" fill="#00BDD3"/>
<path d="M175.585 226.26C175.226 226.314 174.898 226.532 174.696 226.827C174.633 226.92 174.579 227.014 174.54 227.122C174.071 228.125 174.313 229.64 174.368 229.92C174.376 229.943 174.376 229.951 174.376 229.959C174.383 230.021 174.43 230.075 174.493 230.091C174.524 230.106 174.563 230.114 174.602 230.098C174.625 230.098 174.649 230.083 174.672 230.06C174.805 229.951 174.945 229.803 175.101 229.624C175.328 229.36 175.562 229.042 175.765 228.692C176.248 227.907 176.592 227.021 176.381 226.563C176.295 226.384 176.092 226.174 175.585 226.26ZM176.053 226.718C176.186 227.021 175.928 227.713 175.531 228.397C175.273 228.832 174.977 229.252 174.68 229.562C174.618 229.073 174.555 228.14 174.797 227.449C174.844 227.293 174.914 227.146 175 227.029C175.133 226.843 175.32 226.695 175.538 226.633L175.648 226.617C175.975 226.563 176.038 226.68 176.053 226.718Z" fill="#00BDD3"/>
<path d="M172.901 230.62L165.91 234.132C165.629 234.264 165.496 234.575 165.582 234.862L167.642 241.374C167.868 242.011 168.57 242.345 169.218 242.12C169.257 242.104 169.304 242.089 169.343 242.073C181.32 237.885 184.988 234.917 186.244 234.241C189.81 232.306 187.804 229.788 186.478 230.099C180.509 231.521 178.503 231.156 175.921 230.487C174.54 230.278 173.322 230.41 172.901 230.62Z" fill="#0E1F3D"/>
<path opacity="0.2" d="M159.597 217.697L166.705 223.967L160.713 229.057L153.612 222.786L159.597 217.697Z" fill="black"/>
<path d="M157.388 229.011L166.323 220.806L164.356 217.363L154.025 226.198L157.388 229.011Z" fill="#00BDD3"/>
<path opacity="0.5" d="M157.388 229.011L166.323 220.806L164.356 217.363L154.025 226.198L157.388 229.011Z" fill="white"/>
<path d="M162.952 218.567L161.759 219.593L159.972 221.123L158.903 222.025L155.789 224.69L155.189 225.195C155.189 225.195 142.462 218.054 135.377 211.954C130.524 207.774 130.087 206.22 129.58 206.609C122.737 211.791 102.481 229.71 91.003 239.034C90.6285 239.073 90.2617 239.112 89.8794 239.135C83.7464 239.586 78.9243 238.91 75.179 237.488C75.14 232.53 79.4003 220.953 79.7514 219.834C79.7514 219.834 96.6912 203.065 124.134 188.892C124.407 188.752 124.688 188.643 124.961 188.527C125.32 188.372 125.671 188.224 126.037 188.092C127.473 187.548 128.878 187.214 130.243 187.144C131.468 187.082 132.662 187.299 133.809 187.703C134.457 187.929 135.096 188.208 135.713 188.535C136.259 188.807 136.79 189.125 137.305 189.452C138.155 189.988 138.974 190.586 139.747 191.177C141.495 192.521 154.752 209.53 161.883 217.378C161.883 217.386 161.883 217.386 161.883 217.386C162.258 217.829 162.617 218.217 162.952 218.567Z" fill="#00BDD3"/>
<g opacity="0.1">
<g opacity="0.1">
<g opacity="0.1">
<g opacity="0.1">
<path opacity="0.1" d="M162.952 218.567L161.759 219.593L159.972 221.123L158.903 222.025L155.789 224.69L155.189 225.195C155.189 225.195 142.462 218.054 135.377 211.954C130.524 207.774 130.087 206.22 129.58 206.609C122.737 211.791 102.481 229.71 91.003 239.034C90.6285 239.073 90.2617 239.112 89.8794 239.135C83.7464 239.586 78.9243 238.91 75.179 237.488C75.14 232.53 79.4003 220.953 79.7514 219.834C79.7514 219.834 96.6912 203.065 124.134 188.892C124.407 188.752 124.688 188.643 124.961 188.527C125.32 188.372 125.671 188.224 126.037 188.092C127.473 187.548 128.878 187.214 130.243 187.144C131.468 187.082 132.662 187.299 133.809 187.703C134.457 187.929 135.096 188.208 135.713 188.535C136.259 188.807 136.79 189.125 137.305 189.452C138.155 189.988 138.974 190.586 139.747 191.177C141.495 192.521 154.752 209.53 161.883 217.378C161.883 217.386 161.883 217.386 161.883 217.386C162.258 217.829 162.617 218.217 162.952 218.567Z" fill="black"/>
</g>
</g>
</g>
</g>
<path d="M72.5581 146.987C73.6271 151.828 74.7507 158.892 71.4189 162.209C75.5544 169.467 80.5248 176.219 86.2286 182.335C93.5398 169.677 86.6109 161.852 86.6109 161.852C81.1334 160.686 81.2192 158.487 82.0775 154.696L72.5581 146.987Z" fill="#F6B69E"/>
<path d="M68.0322 162.823C68.438 161.51 69.2729 160.375 70.4043 159.59C71.4967 158.751 82.8575 158.627 85.8147 159.59C87.5392 160.134 89.0061 161.284 89.9424 162.831L68.0322 162.823Z" fill="#00BDD3"/>
<path d="M120.444 182.094L123.385 180.757L123.534 185.528C123.534 185.528 122.16 186.748 120.654 187.214C119.211 187.657 117.838 186.336 118.196 184.876C118.485 183.663 119.312 182.638 120.444 182.094Z" fill="#F6B69E"/>
<path d="M127.137 182.109L126.981 183.858C126.942 184.402 126.544 184.852 126.014 184.969L123.501 185.528L123.353 180.757L125.905 180.796C126.583 180.788 127.13 181.325 127.137 182.001C127.137 182.039 127.137 182.071 127.137 182.109Z" fill="#F6B69E"/>
<path d="M83.1385 195.668C87.5548 197.836 92.97 199.08 98.2836 198.186C104.541 197.137 115.442 190.882 120.186 187.292L118.586 184.922C116.222 185.427 96.9025 195.202 84.4181 186.359C82.0929 184.712 72.9637 177.929 69.7333 178.069C64.4976 178.302 64.9502 183.764 67.1974 186.041C69.8425 188.698 79.5258 193.897 83.1385 195.668Z" fill="#F6B69E"/>
<g opacity="0.2">
<path opacity="0.2" d="M126.982 183.857C126.935 184.394 126.545 184.852 126.015 184.969L123.518 185.528V185.536C123.518 185.536 122.145 186.756 120.646 187.222C120.49 187.269 120.334 187.3 120.186 187.3L120.178 187.307C115.434 190.897 104.541 197.145 98.2836 198.194C92.97 199.08 87.5548 197.844 83.1385 195.668C79.5258 193.897 69.8269 188.698 67.1974 186.041C64.9502 183.764 64.4976 178.309 69.7333 178.069C72.9559 177.929 82.0929 184.712 84.4181 186.359C96.3251 194.79 114.443 186.29 118.15 185.046C118.157 184.992 118.165 184.93 118.181 184.875C118.329 184.269 118.602 183.71 118.992 183.228C119.367 182.754 119.866 182.358 120.428 182.086L123.338 180.765L123.37 180.757L125.898 180.788C126.569 180.78 127.123 181.324 127.123 182C127.123 182.031 127.123 182.062 127.123 182.101L126.982 183.857Z" fill="black"/>
<path opacity="0.2" d="M123.376 180.757L123.353 180.765V180.757H123.376Z" fill="black"/>
</g>
<path d="M99.5009 170.632C106.125 185.17 90.7618 189.32 97.7999 213.159L64.404 213.959C64.6303 201.185 69.1871 203.928 63.179 179.91C62.6718 177.874 61.8213 172.038 63.9983 166.724C64.8488 164.657 66.3547 162.901 68.3288 161.836C70.7945 160.507 81.6559 161.549 86.6107 161.875C91.979 161.129 98.5177 168.814 99.5009 170.632Z" fill="#00BDD3"/>
<path opacity="0.5" d="M99.5009 170.632C106.125 185.17 90.7618 189.32 97.7999 213.159L64.404 213.959C64.6303 201.185 69.1871 203.928 63.179 179.91C62.6718 177.874 61.8213 172.038 63.9983 166.724C64.8488 164.657 66.3547 162.901 68.3288 161.836C70.7945 160.507 81.6559 161.549 86.6107 161.875C91.979 161.129 98.5177 168.814 99.5009 170.632Z" fill="white"/>
<path d="M93.1184 141.789C93.0247 142.426 93.2822 142.946 93.6802 143.001C94.0781 143.055 94.4839 142.612 94.5697 141.998C94.6633 141.384 94.4058 140.841 94.0079 140.786C93.61 140.74 93.2042 141.182 93.1184 141.789Z" fill="#0E1F3D"/>
<path d="M93.8276 140.802L95.357 140.592C95.357 140.584 94.4363 141.625 93.8276 140.802Z" fill="#0E1F3D"/>
<path d="M93.2194 142.628C93.2194 142.628 93.8749 145.41 94.8424 146.832C93.9217 147.469 92.5952 146.925 92.5952 146.925L93.2194 142.628Z" fill="#A02724"/>
<path d="M95.3262 137.516C95.4433 137.469 95.5291 137.36 95.5525 137.236C95.5837 137.033 95.4432 136.855 95.2482 136.824C94.0934 136.621 92.9074 136.995 92.0803 137.819C91.932 137.959 91.9242 138.184 92.0568 138.332C92.1973 138.48 92.4236 138.487 92.5718 138.355C92.5874 138.34 92.603 138.324 92.6186 138.301C93.2897 137.663 94.226 137.383 95.1389 137.547C95.2014 137.554 95.2716 137.547 95.3262 137.516Z" fill="#0E1F3D"/>
<path d="M72.9087 136.761C72.2767 144.337 71.8475 147.523 75.0935 151.929C79.978 158.557 89.4662 157.687 92.3454 150.445C94.9515 143.933 95.5523 132.643 88.6079 128.587C83.6609 125.665 77.2782 127.289 74.3366 132.208C73.5095 133.591 73.0179 135.153 72.9087 136.761Z" fill="#F6B69E"/>
<path d="M92.5171 149.987C91.9397 149.505 91.5028 148.868 91.2531 148.137C91.2297 148.06 91.2765 147.974 91.3623 147.943C91.4403 147.92 91.5262 147.966 91.5496 148.052C91.7759 148.681 92.1504 149.233 92.6342 149.676L92.5171 149.987Z" fill="#0E1F3D"/>
<path d="M67.4857 126.908C64.5831 130.824 63.2644 131.842 66.8537 142.262C68.2972 146.45 72.4873 151.998 74.5238 152.503C78.1755 153.42 81.7258 150.864 84.4724 148.292C86.8756 146.038 89.1774 143.606 90.6366 140.661C92.0957 137.716 92.6341 134.188 91.4324 131.135C90.1216 127.817 85.4945 124.856 82.0301 124.126C77.9571 123.271 69.8968 123.652 67.4857 126.908Z" fill="#0E1F3D"/>
<path d="M90.2375 141.307C90.2375 141.307 91.1503 142.869 89.9956 144.034L90.019 141.952L90.2375 141.307Z" fill="#0E1F3D"/>
<path d="M90.223 141.307C90.223 141.307 90.5585 143.7 88.5454 144.594L89.63 142.006L90.223 141.307Z" fill="#0E1F3D"/>
<path d="M76.8261 151.617C76.8261 151.617 74.6101 152.62 74.93 154.788L76.5452 152.495L76.8261 151.617Z" fill="#0E1F3D"/>
<path d="M76.9122 151.664C76.9122 151.664 75.2268 153.405 76.3348 155.308L76.9824 152.581L76.9122 151.664Z" fill="#0E1F3D"/>
<path d="M93.2737 138.183C94.0618 137.375 94.8655 136.551 95.4429 135.58C96.0281 134.609 96.3792 133.459 96.2076 132.347C95.9813 130.902 94.8889 129.713 93.6171 128.983C92.3452 128.26 90.8861 127.934 89.4504 127.615C88.7481 127.46 87.96 127.312 87.3436 127.685C86.7428 128.043 86.4853 128.796 86.5243 129.488C86.5556 130.18 86.8364 130.832 87.0861 131.477C88.0771 134.003 88.7013 136.598 89.1773 139.255C89.4192 140.6 89.2319 141.485 90.5662 140.973C91.4557 140.623 92.5949 138.882 93.2737 138.183Z" fill="#0E1F3D"/>
<path d="M82.7722 141.921C82.6942 143.677 83.3106 145.386 84.4966 146.684C86.0806 148.401 88.0937 147.274 88.6711 145.145C89.2017 143.234 88.9988 140.04 86.9233 139.123C84.8478 138.199 82.8815 139.784 82.7722 141.921Z" fill="#F6B69E"/>
<path d="M171.271 239.034L177.294 233.183L165.637 218.583L158.349 222.864L171.271 239.034Z" fill="#F6B69E"/>
<path d="M183.443 231.381C182.772 231.147 181.398 231.893 180.361 232.554C180.095 232.717 179.861 232.88 179.658 233.02L179.643 233.028C179.604 233.059 179.572 233.082 179.541 233.106C179.307 233.269 179.136 233.393 179.073 233.44C178.995 233.479 178.964 233.556 178.979 233.634C179.003 233.712 179.073 233.766 179.151 233.774C179.869 233.805 180.587 233.782 181.305 233.704C181.469 233.688 181.625 233.673 181.781 233.649C182.303 233.611 182.803 233.44 183.232 233.152C183.388 233.051 183.536 232.942 183.661 232.818C183.887 232.546 183.965 232.173 183.856 231.831C183.809 231.637 183.653 231.466 183.443 231.381ZM183.489 231.94C183.568 232.165 183.528 232.422 183.365 232.608C183.162 232.857 182.756 233.059 182.179 233.199C181.734 233.308 181.195 233.385 180.563 233.416C180.314 233.424 180.048 233.44 179.775 233.44C179.861 233.37 179.947 233.308 180.041 233.245C180.103 233.199 180.165 233.16 180.228 233.113C181.063 232.531 181.984 232.072 182.959 231.754C183.076 231.722 183.201 231.722 183.326 231.761C183.404 231.785 183.466 231.855 183.489 231.94Z" fill="#00BDD3"/>
<path d="M180.102 228.902C179.735 229.042 179.447 229.337 179.306 229.694C178.815 230.891 179.54 232.733 179.665 233.02C179.665 233.028 179.665 233.028 179.673 233.028C179.673 233.043 179.673 233.051 179.681 233.051C179.712 233.113 179.766 233.16 179.837 233.168C179.876 233.176 179.915 233.168 179.954 233.152C179.977 233.144 180.008 233.121 180.016 233.106C180.024 233.09 180.032 233.09 180.04 233.082C180.149 232.942 180.266 232.764 180.367 232.554C180.945 231.474 181.483 229.671 181.007 229.05C180.867 228.871 180.609 228.7 180.102 228.902ZM179.907 232.577C179.696 231.963 179.322 230.658 179.665 229.85C179.759 229.625 179.923 229.43 180.141 229.314L180.25 229.259C180.586 229.127 180.672 229.244 180.703 229.283C181.038 229.733 180.516 231.575 179.907 232.577Z" fill="#00BDD3"/>
<path opacity="0.2" d="M165.021 217.689L170.514 224.69L163.086 228.808L157.507 221.994L165.021 217.689Z" fill="black"/>
<path d="M64.0991 211.426L63.3266 214.441C63.2096 214.682 63.4983 214.907 63.8806 214.9L98.2753 214.092C98.5796 214.076 98.8214 213.928 98.8371 213.742L97.9787 210.579C98.0022 210.377 97.729 210.206 97.4013 210.214L64.6531 211.17C64.4346 211.147 64.224 211.248 64.0991 211.426Z" fill="#0E1F3D"/>
<path d="M94.7025 214.449L93.7974 214.542C93.618 214.534 93.4697 214.488 93.4697 214.379L93.4541 210.486C93.4541 210.377 93.6024 210.268 93.7818 210.245L94.6869 210.144C94.8664 210.152 95.0147 210.198 95.0147 210.315L95.0303 214.208C95.0225 214.317 94.882 214.426 94.7025 214.449Z" fill="#00BDD3"/>
<path d="M82.3896 214.605L81.4844 214.698C81.305 214.69 81.1645 214.643 81.1567 214.535L81.1489 210.642C81.1489 210.533 81.2972 210.424 81.4766 210.401L82.374 210.3C82.5534 210.308 82.7017 210.354 82.7017 210.471L82.7173 214.364C82.7173 214.488 82.569 214.581 82.3896 214.605Z" fill="#00BDD3"/>
<path d="M82.3896 214.605L81.4844 214.698C81.305 214.69 81.1645 214.643 81.1567 214.535L81.1489 210.642C81.1489 210.533 81.2972 210.424 81.4766 210.401L82.374 210.3C82.5534 210.308 82.7017 210.354 82.7017 210.471L82.7173 214.364C82.7173 214.488 82.569 214.581 82.3896 214.605Z" fill="#00BDD3"/>
<path d="M169.632 220.821L168.11 221.676L168.103 221.683L165.489 223.152L163.14 224.465L163.132 224.473L160.721 225.825V225.833L159.801 226.353C159.801 226.353 159.59 226.206 159.223 225.934C159.083 225.833 158.919 225.716 158.732 225.576C158.162 225.149 157.358 224.551 156.43 223.812C156.43 223.812 156.43 223.812 156.43 223.805C151.576 219.989 142.939 212.475 140.372 205.653C138.71 207.627 136.72 210.098 134.442 212.833C124.633 224.62 109.379 241.257 91.0503 243.425C90.6758 243.479 90.3091 243.51 89.9267 243.541C83.8016 244.07 78.9716 243.456 75.2107 242.08C65.6991 238.615 63.0462 230.285 63.7016 223.206V223.183C63.7562 219.873 64.4117 213.967 64.4117 213.967L99.1106 214.006C104.003 208.093 113.811 198.831 123.845 192.987C124.079 192.84 124.321 192.7 124.563 192.576C124.86 192.397 125.164 192.241 125.461 192.078C128.722 190.299 131.984 188.924 135.074 188.178C135.76 188.014 136.439 187.875 137.11 187.774C137.812 187.665 138.507 187.603 139.186 187.572V187.579C143.937 187.362 148.065 189.126 150.866 193.85L169.125 220.083L169.632 220.821Z" fill="#00BDD3"/>
<path d="M150.906 184.915L112.563 186.492L113.687 162.194L152.029 160.617L150.906 184.915Z" fill="#00BDD3"/>
<path d="M150.461 186.834L112.673 188.388C111.604 188.434 110.769 187.595 110.823 186.531L111.939 162.388C111.986 161.316 112.899 160.415 113.968 160.368L151.757 158.814C152.826 158.767 153.661 159.599 153.606 160.671L152.49 184.813C152.443 185.886 151.53 186.787 150.461 186.834Z" fill="#0E1F3D"/>
<path d="M150.906 184.915L112.563 186.492L113.687 162.194L152.029 160.617L150.906 184.915Z" fill="#00BDD3"/>
<path opacity="0.9" d="M150.906 184.915L112.563 186.492L113.687 162.194L152.029 160.617L150.906 184.915Z" fill="white"/>
<path opacity="0.1" d="M127.295 159.824L120.959 188.03L123.479 187.929L129.729 159.723L127.295 159.824Z" fill="white"/>
<path opacity="0.1" d="M131.18 159.668L124.844 187.875L129.846 187.665L136.096 159.466L131.18 159.668Z" fill="white"/>
<path d="M138.46 187.137L151.225 186.779C151.444 188.256 150.812 188.807 150 188.831L145.919 188.932L143.196 188.994L138.959 189.11L112.672 189.872L112.461 188.03L138.46 187.137Z" fill="#00BDD3"/>
<path d="M138.46 187.136L151.225 186.779C151.444 188.255 150.812 188.807 150 188.83L145.919 188.931L143.196 188.993L138.959 189.11L106.422 190.105C106.047 190.112 105.704 189.91 105.54 189.568C105.251 188.962 105.681 188.247 106.359 188.224L138.46 187.136Z" fill="#00BDD3"/>
<path opacity="0.2" d="M138.46 187.136L151.225 186.779C151.444 188.255 150.812 188.807 150 188.83L145.919 188.931L143.196 188.993L138.959 189.11L106.422 190.105C106.047 190.112 105.704 189.91 105.54 189.568C105.251 188.962 105.681 188.247 106.359 188.224L138.46 187.136Z" fill="black"/>
<path opacity="0.2" d="M151.226 186.779L151.304 187.292C151.421 188.084 150.812 188.807 150.001 188.83L145.92 188.931L138.343 189.203L138.468 187.136L151.226 186.779Z" fill="black"/>
<path opacity="0.2" d="M85.1046 171.347C85.1046 171.347 83.3021 175.007 88.5066 184.673L90.6835 188.613C91.4014 189.911 96.1767 187.261 97.5968 184.829C97.5968 184.829 88.4754 179.374 85.1046 171.347Z" fill="black"/>
<path d="M129.244 182.613L132.872 181.549L132.287 187.136C132.287 187.136 127.223 190.508 125.467 187.283L126.17 185.481C126.716 184.113 127.839 183.064 129.244 182.613Z" fill="#F6B69E"/>
<path d="M137.039 183.748L136.586 185.761C136.454 186.382 135.923 186.841 135.283 186.895L132.264 187.128L132.849 181.542L135.814 182.008C136.602 182.109 137.164 182.831 137.055 183.616C137.055 183.663 137.047 183.702 137.039 183.748Z" fill="#F6B69E"/>
<path d="M99.0321 192.063C101.56 195.481 105.118 198.333 109.308 199.149C114.24 200.113 123.728 193.166 128.175 188.667C127.949 186.771 128.082 185.745 126.178 185.481C126.178 185.481 121.286 189.055 112.047 191.2C109.067 191.892 107.077 188.853 104.471 184.432C103.175 182.225 98.9775 173.188 97.3936 171.176C94.8577 167.943 87.6245 170.259 90.4959 178.037C91.7053 181.308 96.9644 189.265 99.0321 192.063Z" fill="#F6B69E"/>
<path d="M96.3329 165.885C101.467 170.578 103.964 178.877 103.964 178.877L91.979 186.15C91.979 186.15 83.2165 173.904 84.777 169.638C86.0098 166.327 88.2961 164.152 91.3001 163.965C93.165 163.856 94.9596 164.626 96.3329 165.885Z" fill="#00BDD3"/>
<path d="M68.8518 215.079L67.9467 215.102C67.7672 215.079 67.6268 215.017 67.6346 214.9L67.9623 211.023C67.9779 210.906 68.1262 210.813 68.3056 210.805L69.2107 210.782C69.3902 210.805 69.5307 210.875 69.5229 210.984L69.1951 214.869C69.1873 214.978 69.0313 215.094 68.8518 215.079Z" fill="#00BDD3"/>
<path d="M158.326 228.001L169.999 222.189L169 218.055L155.688 224.108L158.326 228.001Z" fill="#00BDD3"/>
<path opacity="0.5" d="M158.326 228.001L169.999 222.189L169 218.055L155.688 224.108L158.326 228.001Z" fill="white"/>
<path d="M176.826 232.546L168.773 234.979C168.453 235.064 168.25 235.367 168.289 235.693L169.257 242.966C169.382 243.681 170.061 244.171 170.779 244.047C170.825 244.039 170.872 244.031 170.919 244.015C184.371 241.785 188.811 239.33 190.254 238.84C194.382 237.45 192.736 234.411 191.269 234.505C184.683 234.909 182.631 234.155 180.017 232.974C178.62 232.484 177.309 232.407 176.826 232.546Z" fill="#0E1F3D"/>
<path d="M68.5471 136.668C66.1282 137.049 63.7328 135.199 62.9759 132.884C62.219 130.568 62.8433 127.981 64.0839 125.875C64.9968 124.321 70.9816 120.638 73.2053 124.787C77.6217 133.047 68.5471 136.668 68.5471 136.668Z" fill="#0E1F3D"/>
<path d="M150.562 168.946L126.958 169.948L127.068 167.617L150.671 166.615L150.562 168.946Z" fill="#00BDD3"/>
<g opacity="0.7">
<path opacity="0.7" d="M150.562 168.946L126.958 169.948L127.068 167.617L150.671 166.615L150.562 168.946Z" fill="white"/>
</g>
<path d="M150.422 172.186L126.818 173.181L126.92 170.85L150.523 169.855L150.422 172.186Z" fill="#00BDD3"/>
<g opacity="0.7">
<path opacity="0.7" d="M150.422 172.186L126.818 173.181L126.92 170.85L150.523 169.855L150.422 172.186Z" fill="white"/>
</g>
<path d="M150.274 175.419L126.67 176.421L126.78 174.09L150.383 173.087L150.274 175.419Z" fill="#00BDD3"/>
<g opacity="0.7">
<path opacity="0.7" d="M150.274 175.419L126.67 176.421L126.78 174.09L150.383 173.087L150.274 175.419Z" fill="white"/>
</g>
<path d="M150.126 178.659L126.522 179.654L126.632 177.323L150.235 176.328L150.126 178.659Z" fill="#00BDD3"/>
<g opacity="0.7">
<path opacity="0.7" d="M150.126 178.659L126.522 179.654L126.632 177.323L150.235 176.328L150.126 178.659Z" fill="white"/>
</g>
<path d="M149.985 181.892L126.381 182.895L126.483 180.563L150.086 179.561L149.985 181.892Z" fill="#00BDD3"/>
<g opacity="0.7">
<path opacity="0.7" d="M149.985 181.892L126.381 182.895L126.483 180.563L150.086 179.561L149.985 181.892Z" fill="white"/>
</g>
<path d="M117.432 171.25L115.538 171.332L115.571 172.108L117.466 172.026L117.432 171.25Z" fill="#00BDD3"/>
<g opacity="0.5">
<path opacity="0.5" d="M117.432 171.25L115.538 171.332L115.571 172.108L117.466 172.026L117.432 171.25Z" fill="white"/>
</g>
<path d="M117.347 173.495L115.452 173.576L115.486 174.352L117.38 174.271L117.347 173.495Z" fill="#00BDD3"/>
<g opacity="0.5">
<path opacity="0.5" d="M117.347 173.495L115.452 173.576L115.486 174.352L117.38 174.271L117.347 173.495Z" fill="white"/>
</g>
<path d="M117.251 175.733L115.357 175.814L115.39 176.591L117.285 176.509L117.251 175.733Z" fill="#00BDD3"/>
<g opacity="0.5">
<path opacity="0.5" d="M117.251 175.733L115.357 175.814L115.39 176.591L117.285 176.509L117.251 175.733Z" fill="white"/>
</g>
<path d="M117.166 177.979L115.272 178.061L115.305 178.837L117.2 178.755L117.166 177.979Z" fill="#00BDD3"/>
<g opacity="0.5">
<path opacity="0.5" d="M117.166 177.979L115.272 178.061L115.305 178.837L117.2 178.755L117.166 177.979Z" fill="white"/>
</g>
<path d="M117.073 180.217L115.179 180.298L115.212 181.075L117.106 180.993L117.073 180.217Z" fill="#00BDD3"/>
<g opacity="0.5">
<path opacity="0.5" d="M115.208 181.084L115.278 180.299L117.166 180.221L117.096 180.998L115.208 181.084Z" fill="white"/>
</g>
<path d="M116.982 182.456L115.088 182.536L115.121 183.312L117.015 183.233L116.982 182.456Z" fill="#00BDD3"/>
<g opacity="0.5">
<path opacity="0.5" d="M116.982 182.456L115.088 182.536L115.121 183.312L117.015 183.233L116.982 182.456Z" fill="white"/>
</g>
<path d="M119.397 169.109L115.48 170.562L115.519 169.537L117.689 169.187L115.543 169.039L115.582 168.014L119.397 169.109Z" fill="#00BDD3"/>
<path d="M143.313 165.402L126.958 166.094L127.037 164.478L143.391 163.786L143.313 165.402Z" fill="#00BDD3"/>
<g opacity="0.7">
<path opacity="0.7" d="M143.313 165.402L126.958 166.094L127.037 164.478L143.391 163.786L143.313 165.402Z" fill="white"/>
</g>
<path d="M121.247 166.242L118.852 166.343L119.819 165.729L120.084 165.977L120.373 165.721L121.247 166.242Z" fill="#00BDD3"/>
<path d="M119.725 165.658L118.758 166.272L118.828 164.85L119.725 165.658Z" fill="#00BDD3"/>
<path d="M121.403 164.804L121.325 166.156L120.443 165.643L121.403 164.804Z" fill="#00BDD3"/>
<path d="M120.118 165.397L120.064 165.454L120.07 165.459L120.124 165.403L120.118 165.397Z" fill="white"/>
<path d="M120.072 165.42L120.066 165.425L120.119 165.482L120.125 165.476L120.072 165.42Z" fill="white"/>
<path d="M121.402 164.671L120.372 165.604L120.083 165.852L119.818 165.612L118.921 164.803L118.851 164.734L121.402 164.671Z" fill="#00BDD3"/>
<path d="M117.44 164.921L115.546 165.001L115.556 165.234L117.45 165.154L117.44 164.921Z" fill="#00BDD3"/>
<path d="M117.442 165.51L115.548 165.591L115.558 165.824L117.452 165.743L117.442 165.51Z" fill="#00BDD3"/>
<path d="M117.44 166.111L115.546 166.191L115.556 166.424L117.45 166.344L117.44 166.111Z" fill="#00BDD3"/>
<path d="M227.365 48.0785H215.997C214.967 48.0785 214.132 47.2471 214.132 46.2214C214.132 45.1957 214.967 44.3643 215.997 44.3643H227.365C228.395 44.3643 229.23 45.1957 229.23 46.2214C229.23 47.2471 228.395 48.0785 227.365 48.0785Z" fill="#00BDD3"/>
<g opacity="0.7">
<path opacity="0.7" d="M227.365 48.0785H215.997C214.967 48.0785 214.132 47.2471 214.132 46.2214C214.132 45.1957 214.967 44.3643 215.997 44.3643H227.365C228.395 44.3643 229.23 45.1957 229.23 46.2214C229.23 47.2471 228.395 48.0785 227.365 48.0785Z" fill="white"/>
</g>
<path d="M269.072 86.2382L225.485 166.117C224.923 167.143 223.628 167.524 222.598 166.964L148.433 126.83C147.403 126.271 147.021 124.981 147.582 123.955L204.269 20.0582C204.831 19.0325 206.127 18.6518 207.157 19.2112L257.133 46.252L269.072 86.2382Z" fill="#00BDD3"/>
<g opacity="0.2">
<path opacity="0.2" d="M269.072 86.2382L225.485 166.117C224.923 167.143 223.628 167.524 222.598 166.964L148.433 126.83C147.403 126.271 147.021 124.981 147.582 123.955L204.269 20.0582C204.831 19.0325 206.127 18.6518 207.157 19.2112L257.133 46.252L269.072 86.2382Z" fill="white"/>
</g>
<path d="M244.619 104.167L189.228 74.4083L187.375 77.8276L242.766 107.586L244.619 104.167Z" fill="#00BDD3"/>
<path d="M237.049 118.138L181.658 88.3795L179.806 91.7988L235.197 121.557L237.049 118.138Z" fill="#00BDD3"/>
<path d="M229.482 132.109L174.091 102.351L172.239 105.77L227.63 135.528L229.482 132.109Z" fill="#00BDD3"/>
<path d="M257.196 46.2208L244.056 70.3166C243.494 71.3423 243.877 72.6322 244.907 73.1917L269.025 86.2458L257.196 46.2208Z" fill="#00BDD3"/>
<path opacity="0.7" d="M257.196 46.2208L244.056 70.3166C243.494 71.3423 243.877 72.6322 244.907 73.1917L269.025 86.2458L257.196 46.2208Z" fill="white"/>
<path d="M280.432 83.5492L236.846 163.428C236.284 164.454 234.989 164.835 233.959 164.275L159.793 124.141C158.763 123.582 158.381 122.292 158.943 121.266L215.63 17.3692C216.192 16.3436 217.487 15.9628 218.517 16.5223L268.494 43.5631L280.432 83.5492Z" fill="#00BDD3"/>
<g opacity="0.5">
<path opacity="0.5" d="M280.432 83.5492L236.846 163.428C236.284 164.454 234.989 164.835 233.959 164.275L159.793 124.141C158.763 123.582 158.381 122.292 158.943 121.266L215.63 17.3692C216.192 16.3436 217.487 15.9628 218.517 16.5223L268.494 43.5631L280.432 83.5492Z" fill="white"/>
</g>
<path d="M254.504 100.683L202.069 72.5158C201.25 72.0806 200.235 72.3837 199.791 73.1918L199.533 73.6658C199.096 74.4817 199.4 75.4918 200.212 75.9347L252.647 104.102C253.466 104.537 254.48 104.234 254.925 103.426L255.182 102.952C255.627 102.136 255.323 101.118 254.504 100.683Z" fill="#00BDD3"/>
<path d="M246.935 114.654L194.5 86.4865C193.681 86.0513 192.667 86.3544 192.222 87.1625L191.964 87.6365C191.527 88.4524 191.832 89.4625 192.643 89.9054L245.078 118.073C245.897 118.508 246.911 118.205 247.356 117.397L247.614 116.923C248.058 116.107 247.754 115.097 246.935 114.654Z" fill="#00BDD3"/>
<path d="M239.366 128.625L186.932 100.458C186.113 100.023 185.098 100.326 184.653 101.134L184.396 101.608C183.959 102.424 184.263 103.434 185.075 103.877L237.509 132.044C238.329 132.479 239.343 132.176 239.788 131.368L240.045 130.894C240.49 130.078 240.186 129.068 239.366 128.625Z" fill="#00BDD3"/>
<path d="M268.565 43.5322L255.417 67.628C254.855 68.6537 255.237 69.9436 256.267 70.5031L280.386 83.5572L268.565 43.5322Z" fill="#00BDD3"/>
<path opacity="0.7" d="M268.565 43.5322L255.417 67.628C254.855 68.6537 255.237 69.9436 256.267 70.5031L280.386 83.5572L268.565 43.5322Z" fill="white"/>
<path d="M265.552 6.91113L269.219 23.1278C255.331 26.9275 242.869 40.6111 233.904 53.5487C230.369 58.6538 227.373 64.5826 225.134 70.8533C225.134 70.8533 253.138 45.623 268.58 44.1466L267.846 70.9543C267.846 70.9543 283.857 39.8962 314.959 28.5282C314.951 28.5204 288.906 9.84055 265.552 6.91113Z" fill="#F4E041"/>
<path d="M76.616 184.083L83.6931 264.638H72.2854L64.6699 177.952H69.8978C73.4012 177.952 76.3117 180.61 76.616 184.083Z" fill="#00BDD3"/>
<path opacity="0.2" d="M76.6852 184.806L83.6999 264.638H72.2923L64.6768 177.952H69.1712C73.0803 177.952 76.3419 180.928 76.6852 184.806Z" fill="black"/>
<path d="M69.2032 183.197L76.3583 264.638H8.44297L1.37366 184.2C1.07715 180.843 3.7379 177.952 7.1243 177.952H63.4447C66.4488 177.952 68.9457 180.229 69.2032 183.197Z" fill="#00BDD3"/>
<path opacity="0.2" d="M69.2803 184.083L76.3574 264.638H8.44207L1.46639 185.256C1.12307 181.332 4.22857 177.952 8.18458 177.952H62.5543C66.0577 177.952 68.976 180.61 69.2803 184.083Z" fill="white"/>
<path d="M188.727 264.638H8.75586L6.79736 242.298H179.559C183.546 242.298 187.057 245.515 187.4 249.486L188.727 264.638Z" fill="#00BDD3"/>
<path opacity="0.2" d="M188.727 264.638H8.75586L6.79736 242.298H179.559C183.546 242.298 187.057 245.515 187.4 249.486L188.727 264.638Z" fill="white"/>
<path d="M196.981 273.193H6.64042C4.17475 273.193 2.16943 271.204 2.16943 268.741C2.16943 266.286 4.16695 264.289 6.64042 264.289H196.981C199.447 264.289 201.452 266.278 201.452 268.741C201.452 271.196 199.447 273.193 196.981 273.193Z" fill="#00BDD3"/>
<path opacity="0.2" d="M196.982 273.193H86.4866C84.0209 273.193 82.0156 271.204 82.0156 268.741C82.0156 266.286 84.0131 264.289 86.4866 264.289H196.982C199.447 264.289 201.453 266.278 201.453 268.741C201.453 271.196 199.447 273.193 196.982 273.193Z" fill="black"/>
<path d="M9.1377 273.193L11.3927 280.839H15.9027L18.384 273.193H9.1377Z" fill="#263238"/>
<path opacity="0.5" d="M9.1377 273.193L11.3927 280.839H15.9027L18.384 273.193H9.1377Z" fill="white"/>
<path d="M73.7676 273.193L76.0226 280.839H80.5326L83.0139 273.193H73.7676Z" fill="#263238"/>
<path opacity="0.5" d="M73.7676 273.193L76.0226 280.839H80.5326L83.0139 273.193H73.7676Z" fill="white"/>
<path d="M123.238 273.193L125.493 280.839H130.003L132.484 273.193H123.238Z" fill="#263238"/>
<path opacity="0.5" d="M123.238 273.193L125.493 280.839H130.003L132.484 273.193H123.238Z" fill="white"/>
<path d="M187.868 273.193L190.123 280.839H194.633L197.114 273.193H187.868Z" fill="#263238"/>
<path opacity="0.5" d="M187.868 273.193L190.123 280.839H194.633L197.114 273.193H187.868Z" fill="white"/>
<path d="M261.432 150.254C261.432 167.469 247.468 181.425 230.242 181.425C213.017 181.425 199.053 167.469 199.053 150.254C199.053 133.038 213.017 119.082 230.242 119.082C247.468 119.082 261.432 133.038 261.432 150.254Z" fill="#EA5924"/>
<path d="M226.212 156.733L221.102 151.626C220.532 151.056 219.627 151.056 219.057 151.626C218.488 152.195 218.488 153.099 219.057 153.669L225.176 159.783C225.745 160.352 226.665 160.352 227.235 159.783L242.713 144.329C243.282 143.76 243.282 142.855 242.713 142.286C242.143 141.717 241.238 141.717 240.668 142.286L226.212 156.733Z" fill="white"/>
</symbol>



</defs>
</svg>
